<svg xmlns="http://www.w3.org/2000/svg" viewBox="0 0 1200 380" role="img" aria-label="ROSEC — Roses from Ecuador">
  <defs>
    
  </defs>
  <g transform="translate(110 60) scale(0.3800)">
    <path d="M468.7 139.7L486.7 139.7L490.7 140.7L501.7 144.7L517.7 154.7L524.7 156.7L566.7 156.7L567.7 157.7L596.7 158.7L597.7 159.7L618.7 161.7L647.7 168.7L637.7 167.7L636.7 166.7L628.7 166.7L627.7 165.7L615.7 165.7L614.7 164.7L571.7 164.7L570.7 165.7L559.7 165.7L558.7 166.7L538.7 168.7L524.7 172.7L514.7 177.7L507.7 182.7L497.7 192.7L489.7 204.7L479.7 226.7L475.7 240.7L461.7 275.7L449.7 297.7L436.7 315.7L421.7 330.7L406.7 341.7L377.7 355.7L344.7 367.7L322.7 378.7L320.7 380.7L324.7 363.7L338.7 323.7L355.7 287.7L367.7 268.7L366.7 267.7L341.7 290.7L322.7 301.7L318.7 302.7L321.7 297.7L344.7 269.7L354.7 259.7L352.7 257.7L337.7 271.7L294.7 307.7L270.7 308.7L269.7 307.7L256.7 307.7L254.7 306.7L276.7 288.7L302.7 269.7L335.7 248.7L338.7 245.7L337.7 244.7L288.7 269.7L232.7 305.7L206.7 302.7L187.7 297.7L187.7 296.7L197.7 290.7L235.7 269.7L288.7 244.7L317.7 233.7L320.7 231.7L319.7 230.7L296.7 236.7L249.7 252.7L172.7 286.7L158.7 286.7L139.7 282.7L123.7 276.7L112.7 270.7L138.7 261.7L141.7 259.7L205.7 239.7L263.7 225.7L268.7 225.7L290.7 220.7L303.7 219.7L305.7 217.7L304.7 216.7L257.7 220.7L227.7 226.7L222.7 226.7L159.7 242.7L111.7 257.7L93.7 256.7L72.7 251.7L49.7 241.7L36.7 232.7L57.7 226.7L124.7 213.7L130.7 213.7L131.7 212.7L143.7 211.7L150.7 209.7L157.7 209.7L158.7 208.7L165.7 208.7L166.7 207.7L173.7 207.7L174.7 206.7L204.7 204.7L205.7 203.7L217.7 203.7L218.7 202.7L302.7 201.7L303.7 202.7L325.7 202.7L326.7 203.7L344.7 203.7L345.7 204.7L398.7 206.7L399.7 207.7L431.7 206.7L432.7 204.7L430.7 202.7L407.7 185.7L406.7 183.7L412.7 175.7L434.7 154.7L453.7 143.7L463.7 140.7L467.7 140.7ZM334.7 307.7L320.7 342.7L305.7 391.7L292.7 401.7L275.7 418.7L276.7 414.7L291.7 377.7L305.7 349.7L318.7 328.7L333.7 308.7ZM352.7 376.7L354.7 376.7L347.7 403.7L340.7 424.7L330.7 446.7L322.7 457.7L319.7 460.7L319.7 459.7L326.7 430.7L330.7 406.7L332.7 401.7L334.7 386.7L335.7 384.7L351.7 377.7ZM331.7 386.7L332.7 387.7L329.7 394.7L328.7 401.7L318.7 433.7L309.7 470.7L299.7 486.7L285.7 500.7L285.7 498.7L292.7 471.7L294.7 467.7L295.7 460.7L303.7 435.7L304.7 428.7L310.7 410.7L311.7 403.7L314.7 396.7L330.7 387.7ZM300.7 406.7L301.7 406.7L299.7 414.7L288.7 448.7L275.7 498.7L267.7 512.7L253.7 530.7L239.7 543.7L254.7 484.7L269.7 437.7L275.7 429.7L289.7 415.7L299.7 407.7ZM480.7 156.7L485.7 156.7L491.7 160.7L492.7 162.7L485.7 166.7L481.7 166.7L472.7 163.7L476.7 158.7L479.7 157.7Z" fill="#0A0A0A" fill-rule="evenodd"></path>
  </g>
  <line x1="445" y1="105" x2="445" y2="275" stroke="#0A0A0A" stroke-width="1.5"></line>
  <g fill="#0A0A0A" class="rosec-wordmark">
    <text x="820" y="200" font-size="105" font-weight="400" letter-spacing="34" text-anchor="middle">ROSEC</text>
    <text x="820" y="258" font-size="22" font-weight="400" letter-spacing="9" text-anchor="middle">ROSES FROM ECUADOR</text>
  </g>
</svg>